<?xml version="1.0" encoding="UTF-8" standalone="no"?>
<!--
Derived from "lips" by tonyk (Openclipart).
Modified by Jarle Aase for the smtool Talk project.
Original artwork released to the public domain.
-->
<svg
   id="svg2"
   viewBox="0 0 943.19 745.22"
   version="1.0"
   sodipodi:docname="smtool-talk.svg"
   inkscape:version="1.4.4 (dcaf3e7d9e, 2026-05-05)"
   xmlns:inkscape="http://www.inkscape.org/namespaces/inkscape"
   xmlns:sodipodi="http://sodipodi.sourceforge.net/DTD/sodipodi-0.dtd"
   xmlns:xlink="http://www.w3.org/1999/xlink"
   xmlns="http://www.w3.org/2000/svg"
   xmlns:svg="http://www.w3.org/2000/svg"
   xmlns:rdf="http://www.w3.org/1999/02/22-rdf-syntax-ns#"
   xmlns:cc="http://creativecommons.org/ns#"
   xmlns:dc="http://purl.org/dc/elements/1.1/">
  <sodipodi:namedview
     id="namedview1"
     pagecolor="#ffffff"
     bordercolor="#000000"
     borderopacity="0.25"
     inkscape:showpageshadow="2"
     inkscape:pageopacity="0.0"
     inkscape:pagecheckerboard="0"
     inkscape:deskcolor="#d1d1d1"
     inkscape:zoom="1.5565874"
     inkscape:cx="471.54436"
     inkscape:cy="372.60999"
     inkscape:window-width="2560"
     inkscape:window-height="1368"
     inkscape:window-x="0"
     inkscape:window-y="0"
     inkscape:window-maximized="1"
     inkscape:current-layer="svg2" />
  <defs
     id="defs4">
    <linearGradient
       id="linearGradient3393">
      <stop
         id="stop3395"
         stop-color="#bc878a"
         offset="0" />
      <stop
         id="stop3397"
         stop-color="#bc878a"
         stop-opacity="0"
         offset="1" />
    </linearGradient>
    <linearGradient
       id="linearGradient3369">
      <stop
         id="stop3371"
         stop-color="#bc8775"
         offset="0" />
      <stop
         id="stop3373"
         stop-color="#bc8775"
         stop-opacity="0"
         offset="1" />
    </linearGradient>
    <linearGradient
       id="linearGradient3355">
      <stop
         id="stop3357"
         stop-color="#b67865"
         offset="0" />
      <stop
         id="stop3359"
         stop-color="#b67865"
         stop-opacity="0"
         offset="1" />
    </linearGradient>
    <linearGradient
       id="linearGradient3271">
      <stop
         id="stop3273"
         stop-color="#f24141"
         offset="0" />
      <stop
         id="stop3275"
         stop-color="#d75459"
         stop-opacity="0"
         offset="1" />
    </linearGradient>
    <radialGradient
       id="radialGradient3185"
       gradientUnits="userSpaceOnUse"
       cy="209.77"
       cx="765.43"
       gradientTransform="matrix(1.4949,-0.85778,0.31094,0.5419,-449.16,801.09)"
       r="157.98">
      <stop
         id="stop3181"
         stop-color="#fff"
         offset="0" />
      <stop
         id="stop3183"
         stop-color="#fff"
         stop-opacity="0"
         offset="1" />
    </radialGradient>
    <radialGradient
       id="radialGradient3233"
       gradientUnits="userSpaceOnUse"
       cy="739.17"
       cx="472.97"
       gradientTransform="matrix(0.97206,-0.56611,0.30155,0.5178,-188.05,524.09)"
       r="244.43">
      <stop
         id="stop3229"
         stop-color="#fa0000"
         offset="0" />
      <stop
         id="stop3231"
         stop-color="#fa0000"
         stop-opacity="0"
         offset="1" />
    </radialGradient>
    <radialGradient
       id="radialGradient3241"
       gradientUnits="userSpaceOnUse"
       cy="522.64"
       cx="78.5"
       gradientTransform="matrix(1.2843,-0.87638,0.45699,0.66971,-279.55,272.64)"
       r="220.99">
      <stop
         id="stop3237"
         stop-color="#ec9de3"
         offset="0" />
      <stop
         id="stop3239"
         stop-color="#ec9de3"
         stop-opacity="0"
         offset="1" />
    </radialGradient>
    <radialGradient
       id="radialGradient3249"
       gradientUnits="userSpaceOnUse"
       cy="425.29"
       cx="593.48"
       gradientTransform="matrix(0.25561,-0.70569,1.1638,0.42154,-44.655,506.22)"
       r="164.33">
      <stop
         id="stop3245"
         stop-color="#990f3c"
         offset="0" />
      <stop
         id="stop3247"
         stop-color="#990f3c"
         stop-opacity="0"
         offset="1" />
    </radialGradient>
    <radialGradient
       id="radialGradient3259"
       gradientUnits="userSpaceOnUse"
       cy="557.36"
       cx="-26.827"
       gradientTransform="matrix(2.9457,0.65548,-0.69552,3.1257,475.95,-1124.1)"
       r="94.034">
      <stop
         id="stop3255"
         stop-color="#ab1310"
         offset="0" />
      <stop
         id="stop3257"
         stop-color="#ab1310"
         stop-opacity="0"
         offset="1" />
    </radialGradient>
    <radialGradient
       id="radialGradient3277"
       xlink:href="#linearGradient3271"
       gradientUnits="userSpaceOnUse"
       cy="162.43"
       cx="37.461"
       gradientTransform="matrix(1.3729,-1.0748,0.44611,0.56985,-90.621,146.94)"
       r="166.6" />
    <radialGradient
       id="radialGradient3281"
       xlink:href="#linearGradient3271"
       gradientUnits="userSpaceOnUse"
       cy="162.15"
       cx="45.999"
       gradientTransform="matrix(2.3718,-0.88401,0.2901,0.77834,237.21,-70.717)"
       r="166.6" />
    <radialGradient
       id="radialGradient3343"
       gradientUnits="userSpaceOnUse"
       cy="288.98"
       cx="293.67"
       gradientTransform="matrix(0.91542,-0.53753,0.24221,0.41248,-61.476,360.86)"
       r="256.57">
      <stop
         id="stop3339"
         stop-color="#be1b3e"
         offset="0" />
      <stop
         id="stop3341"
         stop-color="#be1b3e"
         stop-opacity="0"
         offset="1" />
    </radialGradient>
    <radialGradient
       id="radialGradient3361"
       xlink:href="#linearGradient3355"
       gradientUnits="userSpaceOnUse"
       cy="397.19"
       cx="183.49"
       gradientTransform="matrix(0.77406,-0.83768,1.7551,1.6218,-719.82,-143.71)"
       r="77.057" />
    <radialGradient
       id="radialGradient3365"
       xlink:href="#linearGradient3355"
       gradientUnits="userSpaceOnUse"
       cy="416.47"
       cx="33.89"
       gradientTransform="matrix(0.58644,-0.60202,1.426,1.3891,-592.44,-61.74)"
       r="77.057" />
    <radialGradient
       id="radialGradient3375"
       xlink:href="#linearGradient3369"
       gradientUnits="userSpaceOnUse"
       cy="291.1"
       cx="150.87"
       gradientTransform="matrix(0.8273,-0.46713,0.56962,1.0088,-152.27,83.508)"
       r="128.76" />
    <radialGradient
       id="radialGradient3379"
       xlink:href="#linearGradient3369"
       gradientUnits="userSpaceOnUse"
       cy="281.32"
       cx="334.21"
       gradientTransform="matrix(0.94447,-0.49477,0.57338,1.0945,-226.8,85.791)"
       r="128.76" />
    <radialGradient
       id="radialGradient3389"
       gradientUnits="userSpaceOnUse"
       cy="548.05"
       cx="-13.385"
       gradientTransform="matrix(1.5777,-0.5198,1.068,3.2415,-577.58,-1235.4)"
       r="49.924">
      <stop
         id="stop3385"
         stop-color="#a37870"
         offset="0" />
      <stop
         id="stop3387"
         stop-color="#9c7557"
         stop-opacity="0"
         offset="1" />
    </radialGradient>
    <radialGradient
       id="radialGradient3399"
       xlink:href="#linearGradient3393"
       gradientUnits="userSpaceOnUse"
       cy="259.15"
       cx="346.16"
       gradientTransform="matrix(0.27817,-0.23138,0.61692,0.74167,89.994,156.08)"
       r="110.09" />
    <radialGradient
       id="radialGradient3403"
       xlink:href="#linearGradient3393"
       gradientUnits="userSpaceOnUse"
       cy="252.51"
       cx="628.36"
       gradientTransform="matrix(0.47196,-0.26541,0.51385,0.91374,52.782,148.46)"
       r="110.09" />
    <radialGradient
       id="radialGradient3413"
       gradientUnits="userSpaceOnUse"
       cy="224.54"
       cx="557.65"
       gradientTransform="matrix(2.5462,-2.9081e-7,2.7156e-7,2.3777,-845.64,-317.52)"
       r="40.243">
      <stop
         id="stop3409"
         stop-color="#7f4159"
         offset="0" />
      <stop
         id="stop3411"
         stop-color="#7f4159"
         stop-opacity="0"
         offset="1" />
    </radialGradient>
    <filter
       id="filter3415"
       x="-0.028440992"
       y="-0.034541364"
       width="1.0569878"
       height="1.0690227">
      <feGaussianBlur
         id="feGaussianBlur3417"
         stdDeviation="0.73703983" />
    </filter>
  </defs>
  <g
     id="layer1"
     transform="matrix(0.9485746,0.12533599,-0.11983284,0.9921365,219.92313,-43.260929)">
    <path
       id="path3187"
       stroke-width="1.1031px"
       stroke="#000000"
       fill-rule="evenodd"
       d="m 491.74,184.52 c 24.08,0.06 53.67,4.21 90.46,8.79 38.29,4.73 82.41,31.46 91.87,42.16 9.19,10.39 21,2.91 -2.07,16.54 -8.15,4.82 -30.14,17.39 -54.36,27.96 -24.9,10.87 -52.13,35.7 -72.5,49.26 -27.97,18.64 -82.95,62.86 -124.89,79.57 -42.87,17.07 -90.46,34.12 -146.92,74.46 -55.5,39.64 -140.26,85.12 -160.75,97.73 -20.485,12.6 -21.687,15.74 -58.326,36.23 -36.639,20.48 -47.661,35.08 -59.086,36.26 -11.425,1.18 -40.589,16.15 -42.953,13.79 -2.363,-2.36 -12.986,-1.99 -38.988,-0.41 -26.007,1.57 -31.547,-6.38 -14.217,-16.62 17.339,-10.24 42.957,-20.42 60.686,-42.09 17.729,-21.67 41.002,-85.1 57.155,-107.55 16.153,-22.46 74.436,-74.85 100.83,-117.8 26.4,-42.94 92.21,-91.38 134.76,-101.62 42.55,-10.24 60.27,-21.67 79.18,-38.61 18.91,-16.94 72.51,-39.79 98.9,-49.64 14.02,-5.23 33.94,-8.48 61.22,-8.41 z" />
    <path
       id="path2176"
       d="m 443.47,-12.312 c -38.42,0.261 -74.85,8.6003 -112.91,36.968 -97.14,100 -102.87,95.614 -145.72,105.72 -97.359,22.95 -178.94,35.32 -224.28,118.56 -46.835,85.99 -55.69,175.7 -71.4,242.84 -15.72,67.14 -20,128.59 -30,147.16 -10,18.57 -10.01,14.29 58.559,41.44 68.571,27.14 202.84,47.47 287.12,51.4 66.4,3.09 267.16,-52.84 332.88,-92.84 67.11,-40.86 154.27,-107.15 177.12,-135.72 22.86,-28.57 75.74,-107.14 78.6,-144.28 2.85,-37.15 11.19,-70.37 -22.88,-98.56 -27.84,-23.05 -70.01,-94.53 -95.72,-150 -24.69,-53.29 -97.13,-98.581 -148.56,-115.72 -29.3,-3.5423 -56.52,-7.151 -82.81,-6.972 z m 11.19,225.06 c 21.82,0.06 48.65,3.82 82,7.97 34.71,4.28 74.7,28.52 83.28,38.22 8.33,9.42 18.29,2.64 -1.88,15 -7.32,4.48 -27.32,15.75 -49.28,25.34 -22.57,9.86 -47.26,32.36 -65.72,44.66 -25.35,16.89 -75.2,56.98 -113.22,72.12 -38.85,15.48 -82,30.94 -133.18,67.5 -50.31,35.94 -127.15,77.17 -145.72,88.6 -18.574,11.42 -19.663,14.27 -52.878,32.84 -33.214,18.57 -43.205,31.8 -53.562,32.88 -10.357,1.07 -36.795,14.64 -38.938,12.5 -2.142,-2.15 -11.772,-1.81 -35.343,-0.38 -23.572,1.43 -13.215,-3.21 2.5,-12.5 15.714,-9.29 23.553,-21.08 39.625,-40.72 16.071,-19.64 37.169,-77.14 51.812,-97.5 14.643,-20.36 67.478,-67.85 91.404,-106.78 23.93,-38.93 83.59,-82.84 122.16,-92.12 38.57,-9.29 54.64,-19.65 71.78,-35 17.14,-15.36 65.73,-36.08 89.66,-45 12.71,-4.75 30.76,-7.69 55.5,-7.63 z"
       fill-rule="evenodd"
       stroke="#000000"
       stroke-width="1px"
       fill="#f55789" />
    <path
       id="path2180"
       d="m 495.75,216.86 c 0,0 25.75,1 42.5,5.75 16.75,4.75 22.25,5.25 27.25,10.75 5,5.5 10.25,31 7.5,35.25 -2.75,4.25 -17.5,17.25 -28.75,13.5 -11.25,-3.75 -16.5,-3.25 -18.75,-7.75 -2.25,-4.5 -17.25,-34.25 -20.75,-38.5 -3.5,-4.25 -8.5,-12.5 -10,-14.5 -1.5,-2 1,-4.5 1,-4.5 z"
       fill-rule="evenodd"
       stroke="#000000"
       stroke-width="1px"
       fill="#ffffff" />
    <path
       id="path2182"
       d="m 313.25,266.61 c -3.09,-5 16.75,-19.25 57.5,-34.5 40.75,-15.25 50.86,-24.63 110,-15.75 4.02,0.61 9.19,-1.12 12.25,1.5 2.92,2.51 38.25,60 39,76 0.75,16 -2.25,15 -7.5,17 -5.25,2 -35.25,13 -44,17 -8.75,4 -42.25,24 -50.5,29.25 -8.25,5.25 -9.25,6.5 -12,5.75 -2.75,-0.75 -17,-7.5 -23.5,-8 -6.5,-0.5 -7,0.25 -13.25,-8.75 -6.25,-9 -56.25,-69.75 -61.25,-73.25 -5,-3.5 -3.37,-0.77 -6.75,-6.25 z"
       fill-rule="evenodd"
       stroke="#000000"
       stroke-width="1px"
       fill="#ffffff" />
    <path
       id="path2184"
       d="m 139,367.36 c -2.11,-3.43 21.5,-26.01 48,-43.5 18.2,-12 53.87,-22.99 82,-32.5 12.01,-4.06 17.31,-8.97 40.75,-24.5 2.65,-1.75 33.25,31.25 37.5,35.75 4.25,4.5 40.25,49.5 44,63 3.75,13.5 9.1,11.96 -5.5,23.25 -14.41,11.15 -110.41,71.83 -133.5,81 -21.01,8.34 -14.72,14.55 -40,0 -21.93,-12.62 -59.75,-81.75 -64,-88.25 -4.25,-6.5 -7.25,-11 -9.25,-14.25 z"
       fill-rule="evenodd"
       stroke="#000000"
       stroke-width="1px"
       fill="#ffffff" />
    <path
       id="path2186"
       d="m 42.75,478.11 c 0,0 50.5,-52 59.25,-64.5 8.75,-12.5 29.5,-44 34.75,-46.25 5.25,-2.25 16,26.75 24,38.25 8,11.5 32.5,45.25 34.25,51.25 1.75,6 2.5,47.5 -14.75,61.25 -17.25,13.75 -34.25,26.5 -38,30 -3.75,3.5 -12.5,13.5 -26.25,7.5 -13.75,-6 -45,-30.25 -51,-39.5 -6,-9.25 -22.25,-38.25 -22.25,-38 z"
       fill-rule="evenodd"
       stroke="#000000"
       stroke-width="1px"
       fill="#ffffff" />
    <path
       id="path2188"
       d="m -12.75,578.36 c 0,0 15,20 28.5,28.75 13.5,8.75 17.089,7.18 17.25,9.75 0.181,2.89 22.75,-9.75 30.25,-15.25 7.5,-5.5 15.5,-7.25 16,-11.75 0.5,-4.5 1.25,-28.25 3,-36.5 1.75,-8.25 4.5,-11.75 3.5,-14.75 -1,-3 -24,-23.25 -30.75,-36.5 -6.75,-13.25 -10.75,-22 -11.75,-23.25 -1,-1.25 -23.75,22 -31,41 -7.25,19 -21.25,49.25 -23.75,53.5 -2.5,4.25 -0.75,5.75 -1.25,5 z"
       fill-rule="evenodd"
       stroke="#000000"
       stroke-width="1px"
       fill="#ffffff" />
    <path
       id="path2194"
       fill-rule="evenodd"
       fill="url(#radialGradient3249)"
       d="m 336.02,227.3 c 84.48,-21.54 260.21,12.33 263.04,14.59 42.59,33.91 26.94,27.47 50.94,13.47 24,-14 66,-12 73,-12 7,0 -28.07,-45.7 -69.07,-61.7 -96.32,-23.95 -234.09,-5.62 -317.91,45.64 z"
       style="fill:url(#radialGradient3249)" />
    <path
       id="path3177"
       fill-rule="evenodd"
       fill="url(#radialGradient3185)"
       d="m 750,241.36 c 20.33,15.86 58.11,36.55 44,116 -2.58,14.54 -8,7 -62,17 -65.96,12.22 -86,2 -152,28 -66,26 -126,10 -86,-22 40,-32 50,-34 106,-76 56,-42 20,-50 82,-58 62,-8 36,-4 68,-5 z"
       style="fill:url(#radialGradient3185)" />
    <path
       id="path3197"
       fill-rule="evenodd"
       fill="url(#radialGradient3241)"
       d="M -68.876,673.06 C 22.88,662.55 76.434,620.62 99.424,606.71 122.41,592.8 289.894,491.99 340.914,475 c 77.68,-25.87 35.34,39.59 -18.8,93.19 -75.92,75.17 -100.16,104.53 -159.72,125.97 -61.9,22.28 -75.794,24.12 -151.59,5.36 -75.797,-18.76 -76.726,-35.09 -79.676,-26.46 z"
       style="fill:url(#radialGradient3241)" />
    <path
       id="path3217"
       opacity="0.48913"
       fill-rule="evenodd"
       fill="url(#radialGradient3233)"
       d="M 712.76,481.02 C 537.4,469.71 602.45,469.71 466.69,531.93 329.83,594.66 346.52,606.66 285.67,659.21 c -62.22,53.74 -84.85,76.37 -28.28,65.05 56.57,-11.31 197.99,-36.76 243.24,-67.88 45.26,-31.11 138.59,-82.02 169.71,-110.31 31.11,-28.28 48.08,-65.05 42.42,-65.05 z"
       style="fill:url(#radialGradient3233)" />
    <path
       id="path3251"
       opacity="0.58424"
       fill-rule="evenodd"
       fill="url(#radialGradient3259)"
       d="m -137.89,636.58 c 1.84,-9.18 41.724,-138.59 41.724,-178.19 0,-39.6 47.023,-158 111.2,-142.47 95.316,23.05 68.693,130.27 16.786,175 -27.274,23.5 -38.184,76.72 -66.468,116.32 -15.087,21.12 -37.096,33.03 -49.568,40.54 -10.909,6.57 -16.664,11.43 -23.264,11.43 -14.14,0 -32.17,-13.79 -30.41,-22.63 z"
       style="fill:url(#radialGradient3259)" />
    <path
       id="path3261"
       opacity="0.66489"
       fill-rule="evenodd"
       fill="url(#radialGradient3277)"
       d="m -70.004,327.58 c 16.971,-50.91 42.427,-115.97 107.48,-149.91 65.054,-33.94 142.76,-49.61 172.46,-45.37 39,5.57 67.88,33.94 67.88,33.94 0,0 -25.08,6.09 -92.99,69.69 -75.58,70.77 -113.14,74.83 -169.71,84.85 -61.077,10.82 -102.09,57.71 -85.124,6.8 z"
       style="fill:url(#radialGradient3277)" />
    <path
       id="path3279"
       opacity="0.66489"
       fill-rule="evenodd"
       fill="url(#radialGradient3281)"
       d="M 224.68,132.9 C 253.43,87.585 331.62,8.91 403.26,-6.98 c 33.14,-7.347 110.85,-3.926 138.64,7.3549 36.51,14.814 57.69,49.312 57.69,49.312 0,0 12.94,4.745 -72.63,41.273 -93.78,40.03 -119.64,47.87 -185.16,41.41 -61.74,-6.08 -145.87,45.84 -117.12,0.53 z"
       style="fill:url(#radialGradient3281)" />
    <path
       id="path3335"
       fill-rule="evenodd"
       fill="url(#radialGradient3343)"
       d="m 72.703,445.15 c 22.685,-23.01 51.007,-69.93 68.627,-84.92 69.83,-59.37 80.35,-58.38 131.65,-75.99 12.02,-4.13 94.03,-58.37 135.32,-68.25 45.48,-10.89 75.03,-2.33 95.97,-4.66 20.94,-2.32 -2.53,-61.6 -35.1,-62.76 -102.72,-3.74 -127.74,-13.34 -164.96,14.57 -37.23,27.92 -48.06,38.76 -110.88,66.67 -62.81,27.92 -38.02,15.09 -103.16,82.56 -65.143,67.47 -21.572,45.17 -47.164,110.31 15.52,54.94 8.79,54.28 29.697,22.47 z"
       style="fill:url(#radialGradient3343)" />
    <path
       id="path3345"
       opacity="0.51087"
       d="m 42.75,478.11 c 0,0 50.5,-52 59.25,-64.5 8.75,-12.5 29.5,-44 34.75,-46.25 5.25,-2.25 16,26.75 24,38.25 8,11.5 32.5,45.25 34.25,51.25 1.75,6 2.5,47.5 -14.75,61.25 -17.25,13.75 -34.25,26.5 -38,30 -3.75,3.5 -12.5,13.5 -26.25,7.5 -13.75,-6 -45,-30.25 -51,-39.5 -6,-9.25 -22.25,-38.25 -22.25,-38 z"
       fill-rule="evenodd"
       stroke="#000000"
       stroke-width="1px"
       fill="url(#radialGradient3361)"
       style="fill:url(#radialGradient3361)" />
    <path
       id="path3363"
       opacity="0.61141"
       d="m 42.75,478.11 c 0,0 50.5,-52 59.25,-64.5 8.75,-12.5 29.5,-44 34.75,-46.25 5.25,-2.25 16,26.75 24,38.25 8,11.5 32.5,45.25 34.25,51.25 1.75,6 2.5,47.5 -14.75,61.25 -17.25,13.75 -34.25,26.5 -38,30 -3.75,3.5 -12.5,13.5 -26.25,7.5 -13.75,-6 -45,-30.25 -51,-39.5 -6,-9.25 -22.25,-38.25 -22.25,-38 z"
       fill-rule="evenodd"
       stroke="#000000"
       stroke-width="1px"
       fill="url(#radialGradient3365)"
       style="fill:url(#radialGradient3365)" />
    <path
       id="path3367"
       opacity="0.41848"
       d="m 139,367.36 c -2.11,-3.43 21.5,-26.01 48,-43.5 18.2,-12 53.87,-22.99 82,-32.5 12.01,-4.06 17.31,-8.97 40.75,-24.5 2.65,-1.75 33.25,31.25 37.5,35.75 4.25,4.5 40.25,49.5 44,63 3.75,13.5 9.1,11.96 -5.5,23.25 -14.41,11.15 -110.41,71.83 -133.5,81 -21.01,8.34 -14.72,14.55 -40,0 -21.93,-12.62 -59.75,-81.75 -64,-88.25 -4.25,-6.5 -7.25,-11 -9.25,-14.25 z"
       fill-rule="evenodd"
       stroke="#000000"
       stroke-width="1px"
       fill="url(#radialGradient3375)"
       style="fill:url(#radialGradient3375)" />
    <path
       id="path3377"
       opacity="0.60326"
       d="m 139,367.36 c -2.11,-3.43 21.5,-26.01 48,-43.5 18.2,-12 53.87,-22.99 82,-32.5 12.01,-4.06 17.31,-8.97 40.75,-24.5 2.65,-1.75 33.25,31.25 37.5,35.75 4.25,4.5 40.25,49.5 44,63 3.75,13.5 9.1,11.96 -5.5,23.25 -14.41,11.15 -110.41,71.83 -133.5,81 -21.01,8.34 -14.72,14.55 -40,0 -21.93,-12.62 -59.75,-81.75 -64,-88.25 -4.25,-6.5 -7.25,-11 -9.25,-14.25 z"
       fill-rule="evenodd"
       stroke="#000000"
       stroke-width="1px"
       fill="url(#radialGradient3379)"
       style="fill:url(#radialGradient3379)" />
    <path
       id="path3381"
       opacity="0.76902"
       d="m -12.75,578.36 c 0,0 15,20 28.5,28.75 13.5,8.75 17.089,7.18 17.25,9.75 0.181,2.89 22.75,-9.75 30.25,-15.25 7.5,-5.5 15.5,-7.25 16,-11.75 0.5,-4.5 1.25,-28.25 3,-36.5 1.75,-8.25 4.5,-11.75 3.5,-14.75 -1,-3 -24,-23.25 -30.75,-36.5 -6.75,-13.25 -10.75,-22 -11.75,-23.25 -1,-1.25 -23.75,22 -31,41 -7.25,19 -21.25,49.25 -23.75,53.5 -2.5,4.25 -0.75,5.75 -1.25,5 z"
       fill-rule="evenodd"
       stroke="#000000"
       stroke-width="1px"
       fill="url(#radialGradient3389)"
       style="fill:url(#radialGradient3389)" />
    <path
       id="path3391"
       opacity="0.33967"
       d="m 313.25,266.61 c -3.09,-5 16.75,-19.25 57.5,-34.5 40.75,-15.25 50.86,-24.63 110,-15.75 4.02,0.61 9.19,-1.12 12.25,1.5 2.92,2.51 38.25,60 39,76 0.75,16 -2.25,15 -7.5,17 -5.25,2 -35.25,13 -44,17 -8.75,4 -42.25,24 -50.5,29.25 -8.25,5.25 -9.25,6.5 -12,5.75 -2.75,-0.75 -17,-7.5 -23.5,-8 -6.5,-0.5 -7,0.25 -13.25,-8.75 -6.25,-9 -56.25,-69.75 -61.25,-73.25 -5,-3.5 -3.37,-0.77 -6.75,-6.25 z"
       fill-rule="evenodd"
       stroke="#000000"
       stroke-width="1px"
       fill="url(#radialGradient3399)"
       style="fill:url(#radialGradient3399)" />
    <path
       id="path3401"
       opacity="0.4212"
       d="m 313.25,266.61 c -3.09,-5 16.75,-19.25 57.5,-34.5 40.75,-15.25 50.86,-24.63 110,-15.75 4.02,0.61 9.19,-1.12 12.25,1.5 2.92,2.51 38.25,60 39,76 0.75,16 -2.25,15 -7.5,17 -5.25,2 -35.25,13 -44,17 -8.75,4 -42.25,24 -50.5,29.25 -8.25,5.25 -9.25,6.5 -12,5.75 -2.75,-0.75 -17,-7.5 -23.5,-8 -6.5,-0.5 -7,0.25 -13.25,-8.75 -6.25,-9 -56.25,-69.75 -61.25,-73.25 -5,-3.5 -3.37,-0.77 -6.75,-6.25 z"
       fill-rule="evenodd"
       stroke="#000000"
       stroke-width="1px"
       fill="url(#radialGradient3403)"
       style="fill:url(#radialGradient3403)" />
    <path
       id="path3405"
       opacity="0.67663"
       d="m 495.75,216.86 c 0,0 25.75,1 42.5,5.75 16.75,4.75 22.25,5.25 27.25,10.75 5,5.5 10.25,31 7.5,35.25 -2.75,4.25 -17.5,17.25 -28.75,13.5 -11.25,-3.75 -16.5,-3.25 -18.75,-7.75 -2.25,-4.5 -17.25,-34.25 -20.75,-38.5 -3.5,-4.25 -8.5,-12.5 -10,-14.5 -1.5,-2 1,-4.5 1,-4.5 z"
       fill-rule="evenodd"
       filter="url(#filter3415)"
       stroke="#000000"
       stroke-width="1px"
       fill="url(#radialGradient3413)"
       style="fill:url(#radialGradient3413)" />

  </g>
  <metadata id="metadata1">
    <rdf:RDF>
      <cc:Work>
        <dc:format>image/svg+xml</dc:format>

        <dc:title>smtool Talk Icon</dc:title>

        <dc:creator>
          <cc:Agent>
            <dc:title>tonyk</dc:title>
          </cc:Agent>
        </dc:creator>

        <dc:contributor>
          <cc:Agent>
            <dc:title>Jarle Aase</dc:title>
          </cc:Agent>
        </dc:contributor>

        <dc:description>
          Derived from "lips" by tonyk (Openclipart, 2007).
          Modified and adapted for the smtool Talk Android application.
        </dc:description>

        <dc:date>2026-06-15</dc:date>

        <cc:license
          rdf:resource="http://creativecommons.org/licenses/publicdomain/" />
        </cc:Work>
      </rdf:RDF>
    </metadata>
</svg>
